<?xml version="1.0" encoding="UTF-8" standalone="no"?>
<svg
   xmlns:dc="http://purl.org/dc/elements/1.1/"
   xmlns:cc="http://creativecommons.org/ns#"
   xmlns:rdf="http://www.w3.org/1999/02/22-rdf-syntax-ns#"
   xmlns:svg="http://www.w3.org/2000/svg"
   xmlns="http://www.w3.org/2000/svg"
   xmlns:sodipodi="http://sodipodi.sourceforge.net/DTD/sodipodi-0.dtd"
   xmlns:inkscape="http://www.inkscape.org/namespaces/inkscape"
   version="1.1"
   viewBox="0 0 32 32"
   id="svg161"
   sodipodi:docname="system.svg"
   width="32"
   height="32"
   inkscape:version="0.92.4 5da689c313, 2019-01-14">
  <metadata
     id="metadata167">
    <rdf:RDF>
      <cc:Work
         rdf:about="">
        <dc:format>image/svg+xml</dc:format>
        <dc:type
           rdf:resource="http://purl.org/dc/dcmitype/StillImage" />
        <dc:title />
      </cc:Work>
    </rdf:RDF>
  </metadata>
  <defs
     id="defs165" />
  <sodipodi:namedview
     pagecolor="#ffffff"
     bordercolor="#666666"
     borderopacity="1"
     objecttolerance="10"
     gridtolerance="10"
     guidetolerance="10"
     inkscape:pageopacity="0"
     inkscape:pageshadow="2"
     inkscape:window-width="1920"
     inkscape:window-height="981"
     id="namedview163"
     showgrid="true"
     inkscape:snap-bbox="true"
     inkscape:bbox-nodes="true"
     inkscape:zoom="4"
     inkscape:cx="-39.281601"
     inkscape:cy="-6.2286812"
     inkscape:window-x="0"
     inkscape:window-y="28"
     inkscape:window-maximized="1"
     inkscape:current-layer="svg161"
     inkscape:object-nodes="true"
     inkscape:snap-bbox-edge-midpoints="false">
    <inkscape:grid
       type="xygrid"
       id="grid1006" />
  </sodipodi:namedview>
  <style
     id="current-color-scheme"
     type="text/css">.ColorScheme-Text { color:#333333; }</style>
  <circle
     r="15"
     cy="-23"
     cx="58"
     id="circle1383"
     style="opacity:1;fill:#323232;fill-opacity:0.99215686;stroke:none;stroke-width:2.5;stroke-linecap:round;stroke-linejoin:round;stroke-miterlimit:4;stroke-dasharray:none;stroke-opacity:1" />
  <circle
     r="15"
     cy="-23"
     cx="-62.000381"
     id="circle1204"
     style="opacity:1;fill:#323232;fill-opacity:0.99215686;stroke:none;stroke-width:2.5;stroke-linecap:round;stroke-linejoin:round;stroke-miterlimit:4;stroke-dasharray:none;stroke-opacity:1" />
  <circle
     style="opacity:1;fill:#323232;fill-opacity:0.99215686;stroke:none;stroke-width:2.5;stroke-linecap:round;stroke-linejoin:round;stroke-miterlimit:4;stroke-dasharray:none;stroke-opacity:1"
     id="path922"
     cx="16"
     cy="-23"
     r="15" />
  <g
     id="22-22-system-save-session"
     transform="translate(-47,80)">
    <path
       class="ColorScheme-Text"
       d="m 3,13.004 v 16 H 19 V 16.305 H 18.993 L 19,16.29 15.707,12.997 15.699,13.012 V 12.997 H 3 Z m 1,1.0018 h 3 v 5 h 8 v -5 h 0.29298 l 2.707,2.707 v 11.293 h -2 v -7 h -10 v 7 h -2 v -14 z m 4,0 h 3.9004 v 4 H 8 Z m -1,8.0001 h 8 v 6 H 7 Z"
       id="path18"
       inkscape:connector-curvature="0"
       style="color:#333333;fill:currentColor" />
    <path
       d="M 0,10 V 32 H 22 V 10 Z"
       id="path20"
       inkscape:connector-curvature="0"
       style="fill:none" />
  </g>
  <g
     id="system-save-session"
     transform="translate(-47,80)">
    <path
       class="ColorScheme-Text"
       d="M 26,4 V 28 H 50 V 10 L 44,4 Z m 1,1 h 5 v 8 H 43 V 5 h 0.58594 l 5.4141,5.4141 v 16.586 h -4 v -8 h -14 v 8 h -4 v -22 z m 6,0 h 6 v 7 h -6 z m -1,15 h 12 v 7 H 32 Z"
       id="path23"
       inkscape:connector-curvature="0"
       style="color:#333333;fill:currentColor" />
    <path
       d="M 22,0 V 32 H 54 V 0 Z"
       id="path25"
       inkscape:connector-curvature="0"
       style="fill:none" />
  </g>
  <g
     id="22-22-system-users"
     transform="translate(22,80)">
    <path
       class="ColorScheme-Text"
       d="m 14,13 c -1.662,0 -3,1.338 -3,3 0,1.662 1.338,3 3,3 1.662,0 3,-1.338 3,-3 0,-1.662 -1.338,-3 -3,-3 z m -6,3 c -1.662,0 -3,1.338 -3,3 0,1.662 1.338,3 3,3 1.662,0 3,-1.338 3,-3 0,-1.662 -1.338,-3 -3,-3 z m 6,4 c -0.64635,0 -1.256,0.13409 -1.8184,0.36133 l 0.45508,0.91406 C 13.0645,21.11489 13.51444,21 13.99998,21 c 2.216,0 4,1.784 4,4 h -3.5 l 0.5,1 h 4 v -1 c 0,-2.77 -2.23,-5 -5,-5 z m -6,3 c -2.77,0 -5,2.23 -5,5 v 1 h 10 v -1 c 0,-2.77 -2.23,-5 -5,-5 z m 0,1 c 2.216,0 4,1.784 4,4 H 4 c 0,-2.216 1.784,-4 4,-4 z"
       id="path48"
       inkscape:connector-curvature="0"
       style="color:#333333;fill:currentColor" />
    <path
       d="M 0,10 V 32 H 22 V 10 Z"
       id="path50"
       inkscape:connector-curvature="0"
       style="fill:none" />
  </g>
  <g
     id="system-users"
     transform="translate(22,80)">
    <path
       class="ColorScheme-Text"
       d="M 42.5,4 A 4.5,4.5 0 0 0 38,8.5 4.5,4.5 0 0 0 42.5,13 4.5,4.5 0 0 0 47,8.5 4.5,4.5 0 0 0 42.5,4 Z m 0,1 A 3.5,3.5 0 0 1 46,8.5 3.5,3.5 0 0 1 42.5,12 3.5,3.5 0 0 1 39,8.5 3.5,3.5 0 0 1 42.5,5 Z m -9,4 C 31.0147,9 29,11.0147 29,13.5 29,15.9853 31.0147,18 33.5,18 35.9853,18 38,15.9853 38,13.5 38,11.0147 35.9853,9 33.5,9 Z m 0,1 A 3.5,3.5 0 0 1 37,13.5 3.5,3.5 0 0 1 33.5,17 3.5,3.5 0 0 1 30,13.5 3.5,3.5 0 0 1 33.5,10 Z m 9,4 c -0.88285,0.003 -1.7583,0.17228 -2.5859,0.5 -0.06618,0.42368 -0.17413,0.83977 -0.32226,1.2422 0.90271,-0.48731 1.8984,-0.74142 2.9082,-0.74219 3.5899,0 6.5,3.134 6.5,7 h -8.3418 c 0.17032,0.32329 0.3255,0.65711 0.46484,1 h 8.877 v -1 c 0,-4.4183 -3.3579,-8 -7.5,-8 z m -9,5 C 29.3579,19 26,22.5817 26,27 v 1 h 15 v -1 c 0,-4.4183 -3.3579,-8 -7.5,-8 z m 0,1 c 3.5899,0 6.5,3.134 6.5,7 H 27 c 0,-3.866 2.9101,-7 6.5,-7 z"
       id="path53"
       inkscape:connector-curvature="0"
       style="color:#333333;fill:currentColor" />
    <path
       d="M 22,0 V 32 H 54 V 0 Z"
       id="path55"
       inkscape:connector-curvature="0"
       style="fill:none" />
  </g>
  <g
     id="22-22-system-search"
     transform="translate(-176,80)">
    <path
       class="ColorScheme-Text"
       d="m 9,13 c -3.324,0 -6,2.676 -6,6 0,3.324 2.676,6 6,6 1.4812,0 2.8306,-0.53468 3.875,-1.418 l 5.418,5.418 0.70703,-0.70703 -5.418,-5.418 c 0.88329,-1.0444 1.418,-2.3938 1.418,-3.875 0,-3.324 -2.676,-6 -6,-6 z m 0,1 c 2.77,0 5,2.23 5,5 0,2.77 -2.23,5 -5,5 -2.77,0 -5,-2.23 -5,-5 0,-2.77 2.23,-5 5,-5 z"
       id="path58"
       inkscape:connector-curvature="0"
       style="color:#333333;fill:currentColor" />
    <path
       d="M 0,10 V 32 H 22 V 10 Z"
       id="path60"
       inkscape:connector-curvature="0"
       style="fill:none" />
  </g>
  <g
     id="system-search"
     transform="translate(-176,80)">
    <path
       class="ColorScheme-Text"
       d="m 35,4 a 9,9 0 0 0 -9,9 9,9 0 0 0 9,9 9,9 0 0 0 5.9941,-2.2988 L 49.2929,28 l 0.70703,-0.70703 -8.3008,-8.3008 a 9,9 0 0 0 2.3008,-5.9922 9,9 0 0 0 -9,-9 z m 0,1 a 8,8 0 0 1 8,8 8,8 0 0 1 -8,8 8,8 0 0 1 -8,-8 8,8 0 0 1 8,-8 z"
       id="path63"
       inkscape:connector-curvature="0"
       style="color:#333333;fill:currentColor" />
    <path
       d="M 22,0 V 32 H 54 V 0 Z"
       id="path65"
       inkscape:connector-curvature="0"
       style="fill:none" />
  </g>
  <g
     id="system-user-list"
     transform="translate(87,80)">
    <path
       class="ColorScheme-Text"
       d="m 45,9 c -0.58947,0 -1.133,0.17457 -1.5938,0.46875 0.04318,0.46425 0.0075,0.92267 -0.008,1.3359 0.37711,-0.50585 0.9708,-0.80409 1.6018,-0.80463 1.1046,0 2,0.89543 2,2 0,1.10457 -0.89543,2 -2,2 -1.0405,-5.56e-4 -1.9068,-0.7989 -1.9922,-1.8359 -0.18434,0.41948 -0.46466,0.77032 -0.6956,1.0996 -10e-4,0.0013 -0.003,0.0026 -0.004,0.0039 0.476,1.0197 1.4888,1.7324 2.6918,1.7324 1.6612,0 2.998,-1.338 2.998,-3 0,-1.662 -1.3369,-3 -2.998,-3 z m -7,9 c 4.432,0 8,3.568 8,8 H 30 c 0,-4.432 3.568,-8 8,-8 z m 1e-5,-1 c -4.9856,0 -9,3.7166 -9,8.3333 V 27 h 18 v -1.6667 c 0,-4.6167 -4.0144,-8.3333 -9,-8.3333 z m 6.9765,-1 c -1.2619,4.88e-4 -2.3962,0.47884 -3.2754,1.2402 0.38003,0.15615 0.76608,0.33575 1.1424,0.50783 0.005,0.0025 0.009,0.0052 0.0137,0.0078 0.61531,-0.44993 1.3332,-0.75586 2.1173,-0.75586 2.2269,5e-5 4.0234,2.338 4.0234,4 h -2.7285 c 0.19616,0.3391 0.30158,0.64811 0.449,1 h 3.2815 v -1 c 0,-2.7694 -2.2402,-4.9989 -5.0215,-5 z M 37.99991,6 c 2.2092,0 4,1.7909 4,4 0,2.2091 -1.7908,4 -4,4 -2.2092,0 -4,-1.7909 -4,-4 0,-2.2091 1.7908,-4 4,-4 z m 0,-1 c -2.7614,0 -5,2.2386 -5,5 0,2.7614 2.2386,5 5,5 2.3508,0 4.3227,-1.6223 4.8571,-3.8084 0.09336,-0.38187 0.14286,-0.78094 0.14286,-1.1916 0,-2.7614 -2.2386,-5 -5,-5 z m -6.9766,11 c 1.2619,4.88e-4 2.3962,0.47884 3.2754,1.2402 -0.40446,0.16292 -0.80548,0.35541 -1.1561,0.51561 -0.61531,-0.44991 -1.3332,-0.75584 -2.1173,-0.75584 -2.2269,5e-5 -4.0234,2.338 -4.0234,4 h 2.7285 c -0.18697,0.33326 -0.31833,0.6897 -0.449,1 h -3.2815 v -1 c 0,-2.7694 2.2402,-4.9989 5.0215,-5 z M 30.99792,9 c 0.58947,0 1.133,0.17457 1.5938,0.46875 -0.04841,0.46007 -0.0093,0.92754 0.008,1.3359 -0.37711,-0.50585 -0.9708,-0.80409 -1.6018,-0.80463 -1.1046,0 -2,0.89543 -2,2 0,1.10457 0.89543,2 2,2 1.0405,-5.56e-4 1.9068,-0.7989 1.9922,-1.8359 0.18831,0.40268 0.47165,0.77011 0.6956,1.0996 10e-4,0.0013 0.003,0.0026 0.004,0.0039 -0.476,1.0197 -1.4888,1.7324 -2.6918,1.7324 -1.6612,0 -2.998,-1.338 -2.998,-3 0,-1.662 1.3369,-3 2.998,-3 z"
       id="path68"
       inkscape:connector-curvature="0"
       style="color:#333333;fill:currentColor" />
    <path
       d="M 22,0 V 32 H 54 V 0 Z"
       id="path70"
       inkscape:connector-curvature="0"
       style="fill:none" />
  </g>
  <g
     id="system-user-prompt"
     transform="translate(-111,80)">
    <path
       d="M 22,0 V 32 H 54 V 0 Z"
       id="path73"
       inkscape:connector-curvature="0"
       style="fill:none" />
    <path
       class="ColorScheme-Text"
       d="m 37,10.75 v 1.5 h 5 v -1.5 z m -4,0 v 1.5 h 3 v -1.5 z m -6,0 v 1.5 h 5 v -1.5 z M 26,9 h 24 v 5 H 26 Z M 25,8 v 7 H 51 V 8 Z m 1,10 h 24 v 5 H 26 Z m -1,-1 v 7 h 26 v -7 z m 3.5,2 C 27.67157,19 27,19.67157 27,20.5 27,21.32843 27.67157,22 28.5,22 29.32843,22 30,21.32843 30,20.5 30,19.67157 29.32843,19 28.5,19 Z m 4,0 C 31.67157,19 31,19.67157 31,20.5 31,21.32843 31.67157,22 32.5,22 33.32843,22 34,21.32843 34,20.5 34,19.67157 33.32843,19 32.5,19 Z m 4,0 C 35.67157,19 35,19.67157 35,20.5 35,21.32843 35.67157,22 36.5,22 37.32843,22 38,21.32843 38,20.5 38,19.67157 37.32843,19 36.5,19 Z m 4,0 C 39.67157,19 39,19.67157 39,20.5 39,21.32843 39.67157,22 40.5,22 41.32843,22 42,21.32843 42,20.5 42,19.67157 41.32843,19 40.5,19 Z"
       id="path75"
       inkscape:connector-curvature="0"
       style="color:#333333;fill:currentColor" />
  </g>
  <g
     id="22-22-system-user-prompt"
     transform="matrix(0.6875,0,0,0.6875,-126.125,90)"
     style="stroke-width:1.45449996">
    <path
       class="ColorScheme-Text"
       d="M 35.818,21.091 A 0.72727,0.72727 0 0 1 35.09073,21.81827 0.72727,0.72727 0 0 1 34.36346,21.091 0.72727,0.72727 0 0 1 35.09073,20.36373 0.72727,0.72727 0 0 1 35.818,21.091 Z m -2.1818,0 A 0.72727,0.72727 0 0 1 32.90893,21.81827 0.72727,0.72727 0 0 1 32.18166,21.091 0.72727,0.72727 0 0 1 32.90893,20.36373 0.72727,0.72727 0 0 1 33.6362,21.091 Z m -2.1818,0 A 0.72727,0.72727 0 0 1 30.72713,21.81827 0.72727,0.72727 0 0 1 29.99986,21.091 0.72727,0.72727 0 0 1 30.72713,20.36373 0.72727,0.72727 0 0 1 31.4544,21.091 Z m -2.1818,0 A 0.72727,0.72727 0 0 1 28.54533,21.81827 0.72727,0.72727 0 0 1 27.81806,21.091 0.72727,0.72727 0 0 1 28.54533,20.36373 0.72727,0.72727 0 0 1 29.2726,21.091 Z m 5.8182,-10.909 h 2.9091 v 1.4545 h -2.9091 z m -2.9091,0 h 1.4545 v 1.4545 h -1.4545 z m -4.3636,0 h 2.9091 v 1.4545 h -2.9091 z m -2.9091,7.2727 v 7.2727 h 26.182 v -7.2727 z m 1.4545,1.4545 h 23.273 v 4.3636 H 26.3635 Z M 24.909,7.2732 v 7.2727 H 51.091 V 7.2732 Z m 1.4545,1.4545 h 23.273 v 4.3636 h -23.273 z"
       id="path78"
       inkscape:connector-curvature="0"
       style="color:#333333;fill:currentColor" />
    <path
       d="M 22,0 V 32 H 54 V 0 Z"
       id="path80"
       inkscape:connector-curvature="0"
       style="fill:none" />
  </g>
  <g
     id="22-22-system-user-list"
     transform="matrix(0.6875,0,0,0.6875,71.874998,90)"
     style="stroke-width:1.45449996">
    <path
       class="ColorScheme-Text"
       d="m 44.552,10.182 c -0.37453,0 -0.72044,0.10364 -1.0284,0.26989 1.89e-4,0.0019 -0.09527,0.05843 -0.09498,0.06047 0.11476,1.4527 -0.24945,2.3769 -0.66509,3.0986 0.39606,0.5635 1.0484,0.93468 1.7885,0.93468 1.0258,0 1.8861,-0.70799 2.1193,-1.6619 0.04073,-0.16664 0.06255,-0.3407 0.06255,-0.51989 -1.4e-5,-1.205 -0.97684,-2.1818 -2.1818,-2.1818 z m -13.098,0 c 0.37453,0 0.72044,0.10364 1.0284,0.26989 -1.89e-4,0.0019 0.09527,0.05843 0.09498,0.06047 -0.11476,1.4527 0.24946,2.3769 0.66509,3.0986 -0.39606,0.5635 -1.0484,0.93468 -1.7885,0.93468 -1.0258,0 -1.8861,-0.70799 -2.1193,-1.6619 -0.04073,-0.16664 -0.06254,-0.3407 -0.06254,-0.51989 1.4e-5,-1.205 0.97684,-2.1818 2.1818,-2.1818 z m -4.4e-5,5.8182 c 1.2265,0 2.3022,0.56552 2.9602,1.4773 -0.36926,0.19574 -0.745,0.43622 -1.071,0.63066 -0.35836,-0.42266 -1.025,-0.65339 -1.8893,-0.65339 -1.3095,0 -2.1818,0.9608 -2.1818,2.9091 h 1.8182 l -0.72727,1.4545 h -2.5455 l 1e-6,-2.2102 c 1e-6,-2.093 1.622,-3.608 3.6364,-3.608 z m 13.091,1.4e-5 c -1.2265,0 -2.3022,0.56552 -2.9602,1.4773 0.36926,0.19574 0.745,0.43622 1.071,0.63066 0.35836,-0.42266 1.025,-0.65339 1.8893,-0.65339 1.3095,0 2.1818,0.99389 2.1818,2.9091 h -1.8182 l 0.72727,1.4545 h 2.5455 l 2e-6,-2.2102 c 2e-6,-2.093 -1.622,-3.608 -3.6364,-3.608 z m -6.5455,2.9091 c 2.9091,0 5.8182,1.4545 5.8182,5.8182 h -11.636 c 0,-4.3636 2.9091,-5.8182 5.8182,-5.8182 z m 0,-1.4545 c -4.2302,0 -7.2612,2.9743 -7.2698,7.2727 l -0.0029,1.4545 h 14.545 l -0.0029,-1.4545 c -0.0087,-4.3213 -3.0396,-7.2727 -7.2698,-7.2727 z m 7.5e-5,-11.636 c -2.8117,0 -5.091,2.2793 -5.091,5.0909 0,2.8116 2.2793,5.0909 5.091,5.0909 2.3936,0 4.4013,-1.6518 4.9455,-3.8777 0.09498,-0.38881 0.14547,-0.79514 0.14547,-1.2133 0,-2.8116 -2.2793,-5.0909 -5.091,-5.0909 z"
       id="path83"
       inkscape:connector-curvature="0"
       style="color:#333333;fill:currentColor" />
    <path
       d="M 22,0 V 32 H 54 V 0 Z"
       id="path85"
       inkscape:connector-curvature="0"
       style="fill:none" />
  </g>
  <circle
     cx="98"
     cy="-162"
     r="0"
     id="circle88"
     style="fill:url(#a)" />
  <g
     id="g941"
     transform="translate(-3.9999981,-2.0000008)">
    <rect
       ry="0.5"
       y="-21"
       x="10.999998"
       height="1"
       width="18"
       id="rect1243"
       style="opacity:1;fill:#eaeaea;fill-opacity:1;fill-rule:evenodd;stroke:none;stroke-width:2.12132049;stroke-linecap:round;stroke-linejoin:miter;stroke-miterlimit:4;stroke-dasharray:none;stroke-dashoffset:3;stroke-opacity:1;paint-order:stroke fill markers" />
    <rect
       transform="rotate(45)"
       style="opacity:1;fill:#eaeaea;fill-opacity:1;fill-rule:evenodd;stroke:none;stroke-width:1.73205078;stroke-linecap:round;stroke-linejoin:miter;stroke-miterlimit:4;stroke-dasharray:none;stroke-dashoffset:3;stroke-opacity:1;paint-order:stroke fill markers"
       id="rect1274"
       width="12"
       height="1"
       x="-5.8437891"
       y="-35.148232"
       ry="0.5"
       rx="0" />
    <rect
       rx="0"
       ry="0.5"
       y="-6.1568537"
       x="23.147589"
       height="1"
       width="12"
       id="rect936"
       style="opacity:1;fill:#eaeaea;fill-opacity:1;fill-rule:evenodd;stroke:none;stroke-width:1.73205078;stroke-linecap:round;stroke-linejoin:miter;stroke-miterlimit:4;stroke-dasharray:none;stroke-dashoffset:3;stroke-opacity:1;paint-order:stroke fill markers"
       transform="matrix(0.70710678,-0.70710678,-0.70710678,-0.70710678,0,0)" />
  </g>
  <g
     id="system-log-out">
    <rect
       id="rect139"
       style="color:#333333;opacity:0;fill:#333333;stroke-width:2;paint-order:fill markers stroke"
       ry="0"
       rx="0"
       height="32"
       width="32"
       y="0"
       x="0" />
    <path
       style="color:#000000;overflow:visible;opacity:0;fill:#333333"
       inkscape:connector-curvature="0"
       id="path141"
       overflow="visible"
       d="M 16,0 C 7.1724,0 0,7.1724 0,16 0,24.8276 7.1724,32 16,32 24.8276,32 32,24.8276 32,16 32,7.1724 24.8276,0 16,0 Z" />
    <path
       inkscape:connector-curvature="0"
       id="circle943"
       d="M 16,1 A 15,15 0 0 0 1,16 15,15 0 0 0 16,31 15,15 0 0 0 31,16 15,15 0 0 0 16,1 Z m 0.720703,7.220703 c 0.12781,0 0.255581,0.048549 0.353516,0.146485 l 7.779297,7.779296 c 0.195868,0.195869 0.195868,0.511163 0,0.707032 l -7.779297,7.779296 c -0.195869,0.195869 -0.511163,0.195869 -0.707031,0 -0.195869,-0.195868 -0.195869,-0.511162 0,-0.707031 L 23.292969,17 H 7.5 C 7.223,17 7,16.777 7,16.5 7,16.223 7.223,16 7.5,16 H 23.292969 L 16.367188,9.074219 c -0.195869,-0.195869 -0.195869,-0.511163 0,-0.707031 0.09793,-0.097935 0.225706,-0.146485 0.353515,-0.146485 z"
       style="opacity:1;fill:#323232;fill-opacity:0.99215686;stroke:none;stroke-width:2.5;stroke-linecap:round;stroke-linejoin:round;stroke-miterlimit:4;stroke-dasharray:none;stroke-opacity:1" />
  </g>
  <g
     id="22-22-system-shutdown"
     transform="translate(-30.954742,-4.9978065)">
    <rect
       id="rect4229"
       width="22"
       height="22"
       x="-44.045258"
       y="41.997986"
       style="opacity:0.00100002;fill:currentColor;fill-opacity:1;stroke:none;stroke-width:2;stroke-linecap:round;stroke-linejoin:round;stroke-miterlimit:4;stroke-dasharray:none;stroke-opacity:1" />
    <g
       transform="translate(-5.5523806e-8,-19)"
       id="g902">
      <rect
         transform="rotate(90)"
         ry="0.5"
         y="33.500427"
         x="66"
         height="1"
         width="7"
         id="rect895"
         style="opacity:1;fill:#323232;fill-opacity:1;fill-rule:evenodd;stroke:none;stroke-width:1.32287562;stroke-linecap:round;stroke-linejoin:miter;stroke-miterlimit:4;stroke-dasharray:none;stroke-dashoffset:3;stroke-opacity:1;paint-order:stroke fill markers" />
      <path
         sodipodi:open="true"
         style="opacity:1;fill:none;fill-opacity:1;fill-rule:evenodd;stroke:#323232;stroke-width:1.0002377;stroke-linecap:round;stroke-linejoin:miter;stroke-miterlimit:4;stroke-dasharray:none;stroke-dashoffset:3;stroke-opacity:1;paint-order:stroke fill markers"
         id="path898"
         sodipodi:type="arc"
         sodipodi:cx="-34.000427"
         sodipodi:cy="73.500305"
         sodipodi:rx="5.9995742"
         sodipodi:ry="5.9995742"
         sodipodi:start="4.9741884"
         sodipodi:end="4.4505896"
         d="m -32.447623,67.705162 a 5.9995742,5.9995742 0 0 1 4.395443,6.578245 5.9995742,5.9995742 0 0 1 -5.948247,5.216472 5.9995742,5.9995742 0 0 1 -5.948247,-5.216472 5.9995742,5.9995742 0 0 1 4.395443,-6.578245" />
    </g>
  </g>
  <g
     id="g1071"
     transform="translate(-76.000003,-32.000456)" />
  <g
     transform="translate(-78.995827,-4.9978065)"
     id="22-22-system-reboot">
    <rect
       transform="rotate(-90)"
       id="rect4235"
       width="22"
       height="22"
       x="-64"
       y="-35.004173"
       style="opacity:0.00100002;fill:currentColor;fill-opacity:1;stroke:none;stroke-width:2;stroke-linecap:round;stroke-linejoin:round;stroke-miterlimit:4;stroke-dasharray:none;stroke-opacity:1" />
    <g
       transform="translate(2.4959759,-22.499862)"
       id="g1398">
      <rect
         style="opacity:1;fill:#323232;fill-opacity:1;fill-rule:evenodd;stroke:none;stroke-width:0.99999994;stroke-linecap:round;stroke-linejoin:miter;stroke-miterlimit:4;stroke-dasharray:none;stroke-dashoffset:3;stroke-opacity:1;paint-order:stroke fill markers"
         id="rect1036"
         width="4"
         height="1"
         x="70.499626"
         y="-32.495678"
         ry="0.5"
         transform="matrix(0,1,1,0,0,0)" />
      <path
         d="m -74.648932,29.914842 a 6.0000019,6.0000019 0 0 1 7.5205,2.113023 6.0000019,6.0000019 0 0 1 -0.941731,7.754735 6.0000019,6.0000019 0 0 1 -7.807656,0.251581 6.0000019,6.0000019 0 0 1 -1.439009,-7.678023"
         sodipodi:open="true"
         sodipodi:end="3.6651914"
         sodipodi:start="4.2774268"
         sodipodi:ry="6.0000019"
         sodipodi:rx="6.0000019"
         sodipodi:cy="35.356159"
         sodipodi:cx="-72.120674"
         sodipodi:type="arc"
         id="path1343"
         style="opacity:1;fill:none;fill-opacity:1;fill-rule:evenodd;stroke:#323232;stroke-width:0.99980557;stroke-linecap:round;stroke-linejoin:miter;stroke-miterlimit:4;stroke-dasharray:none;stroke-dashoffset:3;stroke-opacity:1;paint-order:stroke fill markers"
         transform="matrix(0.70708849,-0.70712507,0.70708849,0.70712507,0,0)" />
      <rect
         transform="scale(-1,1)"
         ry="0.5"
         y="73.499626"
         x="28.495678"
         height="1"
         width="4"
         id="rect1363"
         style="opacity:1;fill:#323232;fill-opacity:1;fill-rule:evenodd;stroke:none;stroke-width:0.99999994;stroke-linecap:round;stroke-linejoin:miter;stroke-miterlimit:4;stroke-dasharray:none;stroke-dashoffset:3;stroke-opacity:1;paint-order:stroke fill markers" />
    </g>
  </g>
  <g
     transform="translate(-79.144531,-4.9978065)"
     id="22-22-system-suspend">
    <rect
       id="rect4222"
       width="22"
       height="22"
       x="-78.855469"
       y="41.997807"
       style="opacity:0.00100002;fill:currentColor;fill-opacity:1;stroke:none;stroke-width:2;stroke-linecap:round;stroke-linejoin:round;stroke-miterlimit:4;stroke-dasharray:none;stroke-opacity:1" />
    <g
       transform="translate(-6.6467306,-25.757286)"
       id="g1448">
      <path
         transform="matrix(-0.70710678,-0.70710678,-0.70710678,0.70710678,0,0)"
         style="opacity:1;fill:none;fill-opacity:1;fill-rule:evenodd;stroke:#323232;stroke-width:0.99981856;stroke-linecap:round;stroke-linejoin:miter;stroke-miterlimit:4;stroke-dasharray:none;stroke-dashoffset:3;stroke-opacity:1;paint-order:stroke fill markers"
         id="path1021"
         sodipodi:type="arc"
         sodipodi:cx="-12.655592"
         sodipodi:cy="98.71434"
         sodipodi:rx="6.003233"
         sodipodi:ry="6.003233"
         sodipodi:start="1.2307078"
         sodipodi:end="5.0814163"
         sodipodi:open="true"
         d="m -10.65309,104.37374 a 6.003233,6.003233 0 0 1 -6.862757,-2.13566 6.003233,6.003233 0 0 1 0.103994,-7.186633 6.003233,6.003233 0 0 1 6.921678,-1.936194" />
      <path
         d="m -10.776028,104.33431 a 6.003233,6.003233 0 0 1 -3.707187,-5.659674 6.003233,6.003233 0 0 1 3.916563,-5.516856"
         sodipodi:open="true"
         sodipodi:end="4.3575754"
         sodipodi:start="1.9630727"
         sodipodi:ry="6.003233"
         sodipodi:rx="6.003233"
         sodipodi:cy="98.787079"
         sodipodi:cx="-8.4810352"
         sodipodi:type="arc"
         id="path1444"
         style="opacity:1;fill:none;fill-opacity:1;fill-rule:evenodd;stroke:#323232;stroke-width:0.99981856;stroke-linecap:round;stroke-linejoin:miter;stroke-miterlimit:4;stroke-dasharray:none;stroke-dashoffset:3;stroke-opacity:1;paint-order:stroke fill markers"
         transform="matrix(-0.70710678,-0.70710678,-0.70710678,0.70710678,0,0)" />
    </g>
  </g>
  <g
     transform="translate(-78.999996,-4.9978065)"
     id="22-22-system-suspend-hibernate">
    <rect
       id="rect4248"
       width="22"
       height="22"
       x="46.999996"
       y="41.997807"
       style="opacity:0.00100002;fill:currentColor;fill-opacity:1;stroke:none;stroke-width:2;stroke-linecap:round;stroke-linejoin:round;stroke-miterlimit:4;stroke-dasharray:none;stroke-opacity:1" />
    <g
       transform="translate(8.7204299,-23.002191)"
       id="g1548">
      <g
         id="g1539"
         transform="translate(0,0.99999417)">
        <rect
           transform="rotate(-45)"
           style="opacity:1;fill:#323232;fill-opacity:1;fill-rule:evenodd;stroke:none;stroke-width:1.1731019;stroke-linecap:round;stroke-linejoin:miter;stroke-miterlimit:4;stroke-dasharray:none;stroke-dashoffset:3;stroke-opacity:1;paint-order:stroke fill markers"
           id="rect1013"
           width="5.2185783"
           height="1.054822"
           x="-20.994066"
           y="84.325409"
           ry="0.52741098" />
        <rect
           ry="0.50000381"
           y="73.999992"
           x="45"
           height="1.0000076"
           width="5"
           id="rect1015"
           style="opacity:1;fill:#323232;fill-opacity:1;fill-rule:evenodd;stroke:none;stroke-width:1.11803818;stroke-linecap:round;stroke-linejoin:miter;stroke-miterlimit:4;stroke-dasharray:none;stroke-dashoffset:3;stroke-opacity:1;paint-order:stroke fill markers" />
        <rect
           ry="0.49999237"
           style="opacity:1;fill:#323232;fill-opacity:1;fill-rule:evenodd;stroke:none;stroke-width:0.99999231;stroke-linecap:round;stroke-linejoin:miter;stroke-miterlimit:4;stroke-dasharray:none;stroke-dashoffset:3;stroke-opacity:1;paint-order:stroke fill markers"
           id="rect1017"
           width="4"
           height="0.99998474"
           x="45"
           y="-72"
           transform="scale(1,-1)" />
      </g>
      <g
         transform="translate(111.20874,-2.755093)"
         id="g1517">
        <path
           transform="matrix(-0.70710678,-0.70710678,-0.70710678,0.70710678,0,0)"
           style="opacity:1;fill:none;fill-opacity:1;fill-rule:evenodd;stroke:#323232;stroke-width:0.99981856;stroke-linecap:round;stroke-linejoin:miter;stroke-miterlimit:4;stroke-dasharray:none;stroke-dashoffset:3;stroke-opacity:1;paint-order:stroke fill markers"
           id="path1513"
           sodipodi:type="arc"
           sodipodi:cx="-12.245644"
           sodipodi:cy="99.12429"
           sodipodi:rx="6.003233"
           sodipodi:ry="6.003233"
           sodipodi:start="1.2307078"
           sodipodi:end="5.0814163"
           sodipodi:open="true"
           d="m -10.243142,104.78369 a 6.003233,6.003233 0 0 1 -6.862756,-2.13566 6.003233,6.003233 0 0 1 0.103993,-7.186632 6.003233,6.003233 0 0 1 6.921678,-1.936195" />
        <path
           d="m -10.36608,104.74426 a 6.003233,6.003233 0 0 1 -3.707187,-5.659673 6.003233,6.003233 0 0 1 3.916564,-5.516857"
           sodipodi:open="true"
           sodipodi:end="4.3575754"
           sodipodi:start="1.9630727"
           sodipodi:ry="6.003233"
           sodipodi:rx="6.003233"
           sodipodi:cy="99.197029"
           sodipodi:cx="-8.0710869"
           sodipodi:type="arc"
           id="path1515"
           style="opacity:1;fill:none;fill-opacity:1;fill-rule:evenodd;stroke:#323232;stroke-width:0.99981856;stroke-linecap:round;stroke-linejoin:miter;stroke-miterlimit:4;stroke-dasharray:none;stroke-dashoffset:3;stroke-opacity:1;paint-order:stroke fill markers"
           transform="matrix(-0.70710678,-0.70710678,-0.70710678,0.70710678,0,0)" />
      </g>
    </g>
  </g>
  <g
     transform="translate(-79,-4.9978065)"
     id="22-22-system-lock-screen">
    <rect
       id="rect4255"
       width="22"
       height="22"
       x="128"
       y="41.997807"
       style="opacity:0.00100002;fill:currentColor;fill-opacity:1;stroke:none;stroke-width:2;stroke-linecap:round;stroke-linejoin:round;stroke-miterlimit:4;stroke-dasharray:none;stroke-opacity:1" />
    <g
       transform="translate(-13,-57.002193)"
       id="g1697">
      <path
         inkscape:connector-curvature="0"
         style="opacity:1;fill:#323232;fill-opacity:1;stroke:none;stroke-width:0.45825762;stroke-miterlimit:4;stroke-dasharray:none;stroke-opacity:1"
         d="m 152.5,101 c -2.493,0 -4.5,2.007 -4.5,4.5 v 3.63301 h 1 V 105.5 c 0,-1.939 1.561,-3.5 3.5,-3.5 1.939,0 3.5,1.561 3.5,3.5 v 3.63301 h 1 V 105.5 c 0,-2.493 -2.007,-4.5 -4.5,-4.5 z"
         id="rect1584"
         sodipodi:nodetypes="ssccsssccss" />
      <path
         id="path1680"
         d="M 146,109.00219 V 117 h 13 v -7.99781 z m 1,1 h 11 V 116 h -11 z"
         style="opacity:1;fill:#323232;fill-opacity:1;stroke:none;stroke-width:0.38944405;stroke-miterlimit:4;stroke-dasharray:none;stroke-opacity:1"
         inkscape:connector-curvature="0"
         sodipodi:nodetypes="cccccccccc" />
    </g>
  </g>
  <g
     transform="translate(-79.054535,-4.9978065)"
     id="22-22-system-switch-user">
    <rect
       id="rect4220"
       width="22"
       height="22"
       x="169.05453"
       y="41.997807"
       style="opacity:0.00100002;fill:currentColor;fill-opacity:1;stroke:none;stroke-width:2;stroke-linecap:round;stroke-linejoin:round;stroke-miterlimit:4;stroke-dasharray:none;stroke-opacity:1" />
    <g
       transform="translate(5.4997,-18)"
       id="g1797">
      <path
         style="opacity:1;fill:#323232;fill-opacity:1;stroke:none;stroke-width:1.59999979;stroke-miterlimit:4;stroke-dasharray:none;stroke-opacity:1"
         d="m 174.5003,65 a 4,4 0 0 0 -4,4 4,4 0 0 0 4,4 4,4 0 0 0 4,-4 4,4 0 0 0 -4,-4 z m 0,1 a 3,3 0 0 1 3,3 3,3 0 0 1 -3,3 3,3 0 0 1 -3,-3 3,3 0 0 1 3,-3 z"
         id="path1784"
         inkscape:connector-curvature="0" />
      <path
         id="circle1786"
         style="opacity:1;fill:none;fill-opacity:1;stroke:#323232;stroke-width:1.00021005;stroke-linecap:round;stroke-miterlimit:4;stroke-dasharray:none;stroke-opacity:1"
         sodipodi:type="arc"
         sodipodi:cx="174.5"
         sodipodi:cy="78.5"
         sodipodi:rx="5.9998951"
         sodipodi:ry="5.9998951"
         sodipodi:start="3.3106179"
         sodipodi:end="6.114761"
         sodipodi:open="true"
         d="m 168.58561,77.490688 a 5.9998951,5.9998951 0 0 1 5.91619,-4.990583 5.9998951,5.9998951 0 0 1 5.9132,4.994138" />
    </g>
  </g>
  <circle
     r="15"
     cy="-23"
     cx="-142"
     id="circle1079"
     style="opacity:1;fill:#323232;fill-opacity:0.99215686;stroke:none;stroke-width:2.5;stroke-linecap:round;stroke-linejoin:round;stroke-miterlimit:4;stroke-dasharray:none;stroke-opacity:1" />
  <g
     id="g1089"
     transform="translate(-33.683969,-0.26703673)">
    <path
       transform="matrix(-0.70710678,-0.70710678,-0.70710678,0.70710678,0,0)"
       style="opacity:1;fill:none;fill-opacity:1;fill-rule:evenodd;stroke:#eaeaea;stroke-width:1;stroke-linecap:round;stroke-linejoin:miter;stroke-miterlimit:4;stroke-dasharray:none;stroke-dashoffset:3;stroke-opacity:1;paint-order:stroke fill markers"
       id="path1428"
       sodipodi:type="arc"
       sodipodi:cx="93.356796"
       sodipodi:cy="60.482292"
       sodipodi:rx="8.388711"
       sodipodi:ry="8.388711"
       sodipodi:start="1.2613268"
       sodipodi:end="4.9973172"
       sodipodi:open="true"
       d="m 95.911607,68.4725 a 8.388711,8.388711 0 0 1 -9.308644,-3.014647 8.388711,8.388711 0 0 1 -0.120061,-9.783892 8.388711,8.388711 0 0 1 9.231865,-3.242162" />
    <path
       d="m 95.848895,68.499976 a 9.1605988,9.1605988 0 0 1 -4.832837,-7.929309 9.1605988,9.1605988 0 0 1 4.579149,-8.078468"
       sodipodi:open="true"
       sodipodi:end="4.1887902"
       sodipodi:start="2.0627022"
       sodipodi:ry="9.1605988"
       sodipodi:rx="9.1605988"
       sodipodi:cy="60.42551"
       sodipodi:cx="100.17551"
       sodipodi:type="arc"
       id="path1430"
       style="opacity:1;fill:none;fill-opacity:1;fill-rule:evenodd;stroke:#eaeaea;stroke-width:1;stroke-linecap:round;stroke-linejoin:miter;stroke-miterlimit:4;stroke-dasharray:none;stroke-dashoffset:3;stroke-opacity:1;paint-order:stroke fill markers"
       transform="matrix(-0.70710678,-0.70710678,-0.70710678,0.70710678,0,0)" />
  </g>
  <g
     id="system-suspend">
    <rect
       style="color:#333333;opacity:0;fill:#333333;stroke-width:2"
       id="rect92"
       ry="0"
       rx="0"
       height="32"
       width="32"
       y="0"
       x="-158" />
    <path
       style="color:#000000;overflow:visible;opacity:0;fill:#333333"
       inkscape:connector-curvature="0"
       id="path94"
       overflow="visible"
       d="m -142,0 c -8.8276,0 -16,7.1724 -16,16 0,8.8276 7.1724,16 16,16 8.8276,0 16,-7.1724 16,-16 0,-8.8276 -7.1724,-16 -16,-16 z" />
    <path
       inkscape:connector-curvature="0"
       id="path96"
       d="m -142,1 a 15,15 0 0 0 -15,15 15,15 0 0 0 15,15 15,15 0 0 0 15,-15 15,15 0 0 0 -15,-15 z m 0,1 c 7.7241,0 14,6.2759 14,14 0,7.7241 -6.2759,14 -14,14 -7.7241,0 -14,-6.2759 -14,-14 0,-7.7241 6.2759,-14 14,-14 z"
       style="color:#333333;fill:#333333" />
    <path
       inkscape:connector-curvature="0"
       id="circle1091"
       d="m -142,1 a 15,15 0 0 0 -15,15 15,15 0 0 0 15,15 15,15 0 0 0 15,-15 15,15 0 0 0 -15,-15 z m 3.55274,6.617188 a 0.50005,0.50005 0 0 1 0.24609,0.07031 c 0.83611,0.457272 1.57768,1.036389 2.20703,1.705078 1.88806,2.006062 2.77903,4.827303 2.28125,7.642578 -0.6637,3.753704 -3.65106,6.670803 -7.41992,7.242188 -3.69799,0.560646 -7.34125,-1.261947 -9.12695,-4.53125 a 0.50005,0.50005 0 0 1 -0.14258,-0.279297 0.50005,0.50005 0 0 1 0,-0.002 0.50005,0.50005 0 0 1 0.81055,-0.511719 c 2.96509,0.834857 6.15266,0.0418 8.37109,-2.107422 2.25815,-2.187689 3.15359,-5.425944 2.33984,-8.462891 a 0.50005,0.50005 0 0 1 0.4336,-0.765625 z m 0.74414,1.582031 c 0.45697,3.059004 -0.56943,6.182645 -2.82227,8.365234 -2.21639,2.147236 -5.30409,3.08522 -8.30078,2.587891 1.71449,2.340627 4.60751,3.57981 7.54297,3.134765 3.34838,-0.507639 5.99629,-3.092814 6.58594,-6.427734 0.52124,-2.947966 -0.67011,-5.893295 -3.00586,-7.660156 z"
       style="opacity:1;fill:#323232;fill-opacity:0.99215686;stroke:none;stroke-width:2.5;stroke-linecap:round;stroke-linejoin:round;stroke-miterlimit:4;stroke-dasharray:none;stroke-opacity:1" />
  </g>
  <g
     id="g1182">
    <circle
       r="15"
       cy="-23"
       cx="-102"
       id="circle1139"
       style="opacity:1;fill:#323232;fill-opacity:0.99215686;stroke:none;stroke-width:2.5;stroke-linecap:round;stroke-linejoin:round;stroke-miterlimit:4;stroke-dasharray:none;stroke-opacity:1" />
    <g
       id="g1147">
      <rect
         transform="matrix(0,1,1,0,0,0)"
         ry="0.5"
         y="-111"
         x="-30"
         height="1"
         width="5"
         id="rect1370"
         style="opacity:1;fill:#eaeaea;fill-opacity:1;fill-rule:evenodd;stroke:none;stroke-width:1.11803389;stroke-linecap:round;stroke-linejoin:miter;stroke-miterlimit:4;stroke-dasharray:none;stroke-dashoffset:3;stroke-opacity:1;paint-order:stroke fill markers" />
      <path
         transform="rotate(-45)"
         style="opacity:1;fill:none;fill-opacity:1;fill-rule:evenodd;stroke:#eaeaea;stroke-width:0.99994916;stroke-linecap:round;stroke-linejoin:miter;stroke-miterlimit:4;stroke-dasharray:none;stroke-dashoffset:3;stroke-opacity:1;paint-order:stroke fill markers"
         id="path1372"
         sodipodi:type="arc"
         sodipodi:cx="-55.861435"
         sodipodi:cy="-88.388344"
         sodipodi:rx="8.5031691"
         sodipodi:ry="8.5031691"
         sodipodi:start="4.2557058"
         sodipodi:end="3.6651914"
         sodipodi:open="true"
         d="m -59.611108,-96.020109 a 8.5031691,8.5031691 0 0 1 10.746874,2.8003 8.5031691,8.5031691 0 0 1 -1.18905,11.041881 8.5031691,8.5031691 0 0 1 -11.096676,0.448066 8.5031691,8.5031691 0 0 1 -2.075435,-10.910066" />
      <rect
         style="opacity:1;fill:#eaeaea;fill-opacity:1;fill-rule:evenodd;stroke:none;stroke-width:1.11803389;stroke-linecap:round;stroke-linejoin:miter;stroke-miterlimit:4;stroke-dasharray:none;stroke-dashoffset:3;stroke-opacity:1;paint-order:stroke fill markers"
         id="rect1374"
         width="5"
         height="1"
         x="106"
         y="-26"
         ry="0.5"
         transform="scale(-1,1)" />
    </g>
  </g>
  <g
     id="system-reboot">
    <rect
       style="color:#333333;opacity:0;fill:#333333;stroke-width:2"
       id="rect101"
       ry="0"
       rx="0"
       height="32"
       width="32"
       y="0"
       x="-118" />
    <path
       style="color:#000000;overflow:visible;opacity:0;fill:#333333"
       inkscape:connector-curvature="0"
       id="path103"
       overflow="visible"
       d="m -102,0 c -8.8286,0 -16,7.1714 -16,16 0,8.8286 7.1714,16 16,16 8.8275,0 16,-7.1714 16,-16 0,-8.8275 -7.1714,-16 -16,-16 z" />
    <path
       inkscape:connector-curvature="0"
       id="path105"
       d="m -102,1 a 15,15 0 0 0 -15,15 15,15 0 0 0 15,15 15,15 0 0 0 15,-15 15,15 0 0 0 -15,-15 z m 0,1 c 7.725,0 14,6.276 14,14 0,7.725 -6.276,14 -14,14 -7.725,0 -14,-6.275 -14,-14 0,-7.725 6.275,-14 14,-14 z"
       style="color:#333333;fill:#333333" />
    <path
       inkscape:connector-curvature="0"
       id="circle1149"
       d="m -102,1 a 15,15 0 0 0 -15,15 15,15 0 0 0 15,15 15,15 0 0 0 15,-15 15,15 0 0 0 -15,-15 z m 0.39258,6.003906 c 0.40755,0.017947 0.81749,0.065369 1.22851,0.140625 4.384309,0.802733 7.526051,4.701555 7.376957,9.15625 -0.1491,4.454688 -3.54449,8.134799 -7.972657,8.642578 -4.42817,0.507772 -8.5671,-2.307975 -9.7207,-6.613281 a 0.50002458,0.50002458 0 1 1 0.96484,-0.257813 c 1.02726,3.83378 4.6994,6.331076 8.64258,5.878907 3.943189,-0.452162 6.953164,-3.716789 7.085937,-7.683594 0.132765,-3.966811 -2.654462,-7.423855 -6.558597,-8.138672 C -104.31654,7.44121 -107.9949,9.498276 -109.41016,13 H -106.5 c 0.277,0 0.5,0.223 0.5,0.5 0,0.277 -0.223,0.5 -0.5,0.5 h -4 c -0.277,0 -0.5,-0.223 -0.5,-0.5 v -4 c 0,-0.277 0.223,-0.5 0.5,-0.5 0.277,0 0.5,0.223 0.5,0.5 v 2.388672 c 0.29853,-0.580868 0.64842,-1.125294 1.05469,-1.617188 1.77394,-2.147833 4.48502,-3.393204 7.33789,-3.267578 z"
       style="opacity:1;fill:#323232;fill-opacity:0.99215686;stroke:none;stroke-width:2.5;stroke-linecap:round;stroke-linejoin:round;stroke-miterlimit:4;stroke-dasharray:none;stroke-opacity:1" />
  </g>
  <g
     id="g1229"
     transform="translate(-1.0003797)">
    <rect
       style="opacity:1;fill:#eaeaea;fill-opacity:1;fill-rule:evenodd;stroke:none;stroke-width:0.99299997;stroke-linecap:round;stroke-linejoin:miter;stroke-miterlimit:4;stroke-dasharray:none;stroke-dashoffset:3;stroke-opacity:1;paint-order:stroke fill markers"
       id="rect1207"
       width="7.9477205"
       height="0.99346507"
       x="-33"
       y="60.503269"
       ry="0.49673253"
       transform="rotate(90)" />
    <path
       d="m -56.749895,-30.361397 a 8.5002098,8.5002098 0 0 1 3.960467,9.561413 A 8.5002098,8.5002098 0 0 1 -61,-14.49979 a 8.5002098,8.5002098 0 0 1 -8.210572,-6.300194 8.5002098,8.5002098 0 0 1 3.960467,-9.561414"
       sodipodi:open="true"
       sodipodi:end="4.1887902"
       sodipodi:start="5.2359878"
       sodipodi:ry="8.5002098"
       sodipodi:rx="8.5002098"
       sodipodi:cy="-23"
       sodipodi:cx="-61"
       sodipodi:type="arc"
       id="path1209"
       style="opacity:1;fill:none;fill-opacity:1;fill-rule:evenodd;stroke:#eaeaea;stroke-width:0.99957985;stroke-linecap:round;stroke-linejoin:miter;stroke-miterlimit:4;stroke-dasharray:none;stroke-dashoffset:3;stroke-opacity:1;paint-order:stroke fill markers" />
  </g>
  <g
     id="system-shutdown">
    <rect
       id="rect119"
       style="color:#333333;opacity:0;fill:#333333;stroke-width:2;paint-order:fill markers stroke"
       ry="0"
       rx="0"
       height="32"
       width="32"
       y="0"
       x="-78" />
    <path
       style="color:#000000;overflow:visible;opacity:0;fill:#333333"
       inkscape:connector-curvature="0"
       id="path121"
       overflow="visible"
       d="m -62,0 c -8.8286,0 -16,7.1714 -16,16 0,8.8286 7.1714,16 16,16 8.8286,0 16,-7.1714 16,-16 0,-8.8286 -7.1714,-16 -16,-16 z" />
    <path
       inkscape:connector-curvature="0"
       id="circle1231"
       d="M -62,1 A 15,15 0 0 0 -77,16 15,15 0 0 0 -62,31 15,15 0 0 0 -47,16 15,15 0 0 0 -62,1 Z m 0,5 c 0.27519,0 0.496094,0.220904 0.496094,0.496094 v 6.955078 c 0,0.27519 -0.220904,0.496094 -0.496094,0.496094 -0.27519,0 -0.496094,-0.220904 -0.496094,-0.496094 V 6.496094 C -62.496094,6.220904 -62.27519,6 -62,6 Z m -4.279297,2.134766 a 0.4998399,0.4998399 0 0 1 0.05078,0 A 0.4998399,0.4998399 0 0 1 -66,9.072266 c -3.138,1.811725 -4.666334,5.498064 -3.728516,8.998046 C -68.790698,21.570297 -65.62345,24 -62,24 c 3.62345,0 6.790698,-2.429703 7.728516,-5.929688 C -53.333666,14.570329 -54.862,10.883991 -58,9.072266 a 0.5005035,0.5005035 0 1 1 0.5,-0.867188 c 3.525621,2.035518 5.247021,6.192681 4.193359,10.125 C -54.360302,22.262397 -57.928964,25 -62,25 c -4.071036,0 -7.639698,-2.737603 -8.693359,-6.669922 -1.053662,-3.932319 0.667738,-8.089482 4.193359,-10.125 a 0.4998399,0.4998399 0 0 1 0.220703,-0.070312 z"
       style="opacity:1;fill:#323232;fill-opacity:0.99215686;stroke:none;stroke-width:2.5;stroke-linecap:round;stroke-linejoin:round;stroke-miterlimit:4;stroke-dasharray:none;stroke-opacity:1" />
  </g>
  <circle
     style="opacity:1;fill:#323232;fill-opacity:0.99215686;stroke:none;stroke-width:2.5;stroke-linecap:round;stroke-linejoin:round;stroke-miterlimit:4;stroke-dasharray:none;stroke-opacity:1"
     id="circle1307"
     cx="-22.000004"
     cy="-23"
     r="15" />
  <g
     transform="translate(86.31603,-0.26703673)"
     id="g1313">
    <path
       d="m 95.911607,68.4725 a 8.388711,8.388711 0 0 1 -9.308644,-3.014647 8.388711,8.388711 0 0 1 -0.120061,-9.783892 8.388711,8.388711 0 0 1 9.231865,-3.242162"
       sodipodi:open="true"
       sodipodi:end="4.9973172"
       sodipodi:start="1.2613268"
       sodipodi:ry="8.388711"
       sodipodi:rx="8.388711"
       sodipodi:cy="60.482292"
       sodipodi:cx="93.356796"
       sodipodi:type="arc"
       id="path1309"
       style="opacity:1;fill:none;fill-opacity:1;fill-rule:evenodd;stroke:#eaeaea;stroke-width:1;stroke-linecap:round;stroke-linejoin:miter;stroke-miterlimit:4;stroke-dasharray:none;stroke-dashoffset:3;stroke-opacity:1;paint-order:stroke fill markers"
       transform="matrix(-0.70710678,-0.70710678,-0.70710678,0.70710678,0,0)" />
    <path
       transform="matrix(-0.70710678,-0.70710678,-0.70710678,0.70710678,0,0)"
       style="opacity:1;fill:none;fill-opacity:1;fill-rule:evenodd;stroke:#eaeaea;stroke-width:1;stroke-linecap:round;stroke-linejoin:miter;stroke-miterlimit:4;stroke-dasharray:none;stroke-dashoffset:3;stroke-opacity:1;paint-order:stroke fill markers"
       id="path1311"
       sodipodi:type="arc"
       sodipodi:cx="100.17551"
       sodipodi:cy="60.42551"
       sodipodi:rx="9.1605988"
       sodipodi:ry="9.1605988"
       sodipodi:start="2.0627022"
       sodipodi:end="4.1887902"
       sodipodi:open="true"
       d="m 95.848895,68.499976 a 9.1605988,9.1605988 0 0 1 -4.832837,-7.929309 9.1605988,9.1605988 0 0 1 4.579149,-8.078468" />
  </g>
  <g
     id="g1323"
     transform="translate(2)">
    <rect
       style="opacity:1;fill:#eaeaea;fill-opacity:1;fill-rule:evenodd;stroke:none;stroke-width:1.22474945;stroke-linecap:round;stroke-linejoin:miter;stroke-miterlimit:4;stroke-dasharray:none;stroke-dashoffset:3;stroke-opacity:1;paint-order:stroke fill markers"
       id="rect1471"
       width="6"
       height="1.0000076"
       x="-31"
       y="-25"
       ry="0.50000381" />
    <rect
       transform="scale(1,-1)"
       y="29"
       x="-31"
       height="0.99998474"
       width="6"
       id="rect1473"
       style="opacity:1;fill:#eaeaea;fill-opacity:1;fill-rule:evenodd;stroke:none;stroke-width:1.22473562;stroke-linecap:round;stroke-linejoin:miter;stroke-miterlimit:4;stroke-dasharray:none;stroke-dashoffset:3;stroke-opacity:1;paint-order:stroke fill markers"
       ry="0.49999237" />
    <rect
       ry="0.50413871"
       style="opacity:1;fill:#eaeaea;fill-opacity:1;fill-rule:evenodd;stroke:none;stroke-width:1.42593062;stroke-linecap:round;stroke-linejoin:miter;stroke-miterlimit:4;stroke-dasharray:none;stroke-dashoffset:3;stroke-opacity:1;paint-order:stroke fill markers"
       id="rect1318"
       width="8.0663424"
       height="1.0082774"
       x="-4.7402778"
       y="38.386734"
       transform="matrix(0.70710678,-0.70710678,-0.70710678,-0.70710678,0,0)" />
  </g>
  <g
     id="system-suspend-hibernate">
    <path
       inkscape:connector-curvature="0"
       id="path130"
       style="color:#333333;fill:#333333;paint-order:stroke markers fill"
       d="m -22,1 c -8.2843,0 -15,6.7157 -15,15 0,8.2843 6.7157,15 15,15 8.2843,0 15,-6.7157 15,-15 C -7,7.7157 -13.7157,1 -22,1 Z m 0,1 c 7.732,0 14,6.268 14,14 0,7.732 -6.268,14 -14,14 -7.732,0 -14,-6.268 -14,-14 0,-7.732 6.268,-14 14,-14 z" />
    <rect
       style="color:#333333;opacity:0;fill:#333333;stroke-width:2"
       id="rect132"
       ry="0"
       rx="0"
       height="32"
       width="32"
       y="0"
       x="-38" />
    <circle
       style="color:#333333;opacity:0;fill:#333333"
       id="circle134"
       r="16"
       cy="16"
       cx="-22" />
    <path
       inkscape:connector-curvature="0"
       id="circle1325"
       d="M -22,1 A 15,15 0 0 0 -37,16 15,15 0 0 0 -22,31 15,15 0 0 0 -7,16 15,15 0 0 0 -22,1 Z m 3.535156,6.619141 a 0.50005,0.50005 0 0 1 0.01953,0 0.50005,0.50005 0 0 1 0.246093,0.070312 c 0.836106,0.457277 1.575724,1.034437 2.205078,1.703125 1.888058,2.006064 2.779026,4.827298 2.28125,7.642578 -0.663703,3.753705 -3.651061,6.668844 -7.419921,7.240235 -3.697988,0.560645 -7.341252,-1.26 -9.126954,-4.529297 a 0.50005,0.50005 0 0 1 -0.142578,-0.279297 0.50032041,0.50032041 0 0 1 0,-0.002 0.50032041,0.50032041 0 0 1 0.810547,-0.511719 c 2.965158,0.834857 6.154615,0.04179 8.373047,-2.107422 2.25815,-2.187693 3.151639,-5.423987 2.337891,-8.460937 a 0.50005,0.50005 0 0 1 -0.002,-0.00586 0.50005,0.50005 0 0 1 0.417968,-0.759765 z M -28.5,9 h 4.996094 0.0039 c 0.06315,4.8e-4 0.126083,0.01291 0.185547,0.03711 0.126954,0.05061 0.226737,0.15039 0.277344,0.277344 C -23.014216,9.371885 -23,9.434213 -23,9.5 c 10e-6,0.0013 0,0.0026 0,0.0039 0,0.0653 -0.01371,0.130027 -0.03906,0.191406 -0.02468,0.05975 -0.06067,0.117307 -0.109376,0.166016 L -27.287109,14 H -23.5 c 0.277002,0 0.5,0.222998 0.5,0.5 0,0.277002 -0.222998,0.5 -0.5,0.5 h -4.996094 c -0.0013,0 -0.0026,10e-6 -0.0039,0 -0.06579,0 -0.128115,-0.01422 -0.185547,-0.03711 -0.126955,-0.05061 -0.226737,-0.150389 -0.277344,-0.277344 C -28.987087,14.62609 -28.99952,14.563144 -29,14.5 c 0,-6.66e-4 -3e-6,-0.0013 0,-0.002 -2e-6,-6.4e-4 0,-0.0013 0,-0.002 0,-0.12885 0.04969,-0.258677 0.148438,-0.357422 L -24.712891,10 H -28.5 C -28.776996,10 -29,9.776996 -29,9.5 -29,9.223004 -28.776996,9 -28.5,9 Z m 10.796875,0.199219 c 0.456976,3.059005 -0.569388,6.18265 -2.822266,8.365234 -2.216391,2.147237 -5.304086,3.08522 -8.300781,2.587891 1.714496,2.340649 4.607493,3.579808 7.542969,3.134765 3.348382,-0.507641 5.998235,-3.090863 6.587891,-6.425781 0.521236,-2.947968 -0.672065,-5.895251 -3.007813,-7.662109 z"
       style="opacity:1;fill:#323232;fill-opacity:0.99215686;stroke:none;stroke-width:2.5;stroke-linecap:round;stroke-linejoin:round;stroke-miterlimit:4;stroke-dasharray:none;stroke-opacity:1" />
  </g>
  <path
     sodipodi:nodetypes="cccccccccc"
     inkscape:connector-curvature="0"
     style="opacity:1;fill:#eaeaea;fill-opacity:1;stroke:none;stroke-width:0.80622578;stroke-miterlimit:4;stroke-dasharray:none;stroke-opacity:1"
     d="m 49,-23 v 9 h 18 v -9 z m 1,1 h 16 v 7 H 50 Z"
     id="rect1564" />
  <path
     style="opacity:1;fill:#eaeaea;fill-opacity:1;stroke:none;stroke-width:1.09544516;stroke-linecap:round;stroke-linejoin:round;stroke-miterlimit:4;stroke-dasharray:none;stroke-opacity:1"
     d="m 58,-34 c -3.324,0 -6,2.676 -6,6 v 5 h 1 v -5 c 0,-2.77 2.23,-5 5,-5 2.77,0 5,2.23 5,5 v 5 h 1 v -5 c 0,-3.324 -2.676,-6 -6,-6 z"
     id="rect1389"
     inkscape:connector-curvature="0"
     sodipodi:nodetypes="ssccsssccss" />
  <g
     id="system-lock-screen">
    <rect
       x="42"
       y="0"
       width="32"
       height="32"
       rx="0"
       ry="0"
       style="color:#333333;opacity:0;fill:#333333;stroke-width:2;paint-order:fill markers stroke"
       id="rect152" />
    <path
       d="M 58,0 C 49.1724,0 42,7.1724 42,16 42,24.8276 49.1724,32 58,32 66.8276,32 74,24.8276 74,16 74,7.1724 66.8276,0 58,0 Z"
       overflow="visible"
       id="path154"
       inkscape:connector-curvature="0"
       style="color:#000000;overflow:visible;opacity:0;fill:#333333" />
    <path
       inkscape:connector-curvature="0"
       id="circle1397"
       d="M 58,1 A 15,15 0 0 0 43,16 15,15 0 0 0 58,31 15,15 0 0 0 73,16 15,15 0 0 0 58,1 Z m 0,4 c 3.324,0 6,2.676 6,6 v 5 h 3 v 9 H 49 v -9 h 3 v -5 c 0,-3.324 2.676,-6 6,-6 z m 0,1 c -2.77,0 -5,2.23 -5,5 v 5 H 63 V 11 C 63,8.23 60.77,6 58,6 Z m -8,11 v 7 h 16 v -7 z"
       style="opacity:1;fill:#323232;fill-opacity:0.99215686;stroke:none;stroke-width:2.5;stroke-linecap:round;stroke-linejoin:round;stroke-miterlimit:4;stroke-dasharray:none;stroke-opacity:1" />
  </g>
  <circle
     style="opacity:1;fill:#323232;fill-opacity:0.99215686;stroke:none;stroke-width:2.5;stroke-linecap:round;stroke-linejoin:round;stroke-miterlimit:4;stroke-dasharray:none;stroke-opacity:1"
     id="circle1439"
     cx="101"
     cy="-23"
     r="15" />
  <g
     id="g1479"
     transform="translate(0,1.560341e-6)">
    <g
       id="g1471">
      <rect
         style="opacity:1;fill:#eaeaea;fill-opacity:1;stroke:none;stroke-width:0.73029673;stroke-miterlimit:4;stroke-dasharray:none;stroke-opacity:1"
         id="rect1715"
         width="16"
         height="1"
         x="93"
         y="-25"
         ry="0.5" />
      <rect
         style="opacity:1;fill:#eaeaea;fill-opacity:1;fill-rule:evenodd;stroke:none;stroke-width:1.2247448;stroke-linecap:round;stroke-linejoin:miter;stroke-miterlimit:4;stroke-dasharray:none;stroke-dashoffset:3;stroke-opacity:1;paint-order:stroke fill markers"
         id="rect1725"
         width="6"
         height="1"
         x="76.213158"
         y="-75.967781"
         ry="0.5"
         rx="0"
         transform="rotate(30)" />
    </g>
    <g
       id="g1467">
      <rect
         ry="0.5"
         y="21.000002"
         x="-109"
         height="1"
         width="16"
         id="rect1461"
         style="opacity:1;fill:#eaeaea;fill-opacity:1;stroke:none;stroke-width:0.73029673;stroke-miterlimit:4;stroke-dasharray:none;stroke-opacity:1"
         transform="scale(-1)" />
      <rect
         transform="rotate(-150)"
         rx="0"
         ry="0.5"
         y="64.869392"
         x="-75.723976"
         height="1"
         width="6"
         id="rect1463"
         style="opacity:1;fill:#eaeaea;fill-opacity:1;fill-rule:evenodd;stroke:none;stroke-width:1.2247448;stroke-linecap:round;stroke-linejoin:miter;stroke-miterlimit:4;stroke-dasharray:none;stroke-dashoffset:3;stroke-opacity:1;paint-order:stroke fill markers" />
    </g>
  </g>
  <g
     id="system-switch-user">
    <rect
       style="color:#333333;opacity:0;fill:#333333;stroke-width:2"
       id="rect110"
       ry="0"
       rx="0"
       height="32"
       width="32"
       y="0"
       x="85" />
    <circle
       style="color:#333333;opacity:0;fill:#333333"
       id="circle112"
       r="16"
       cy="16"
       cx="101" />
    <path
       inkscape:connector-curvature="0"
       id="path114"
       d="M 101,1 A 15,15 0 0 0 86,16 15,15 0 0 0 101,31 15,15 0 0 0 116,16 15,15 0 0 0 101,1 Z m 0,1 A 14,14 0 0 1 115,16 14,14 0 0 1 101,30 14,14 0 0 1 87,16 14,14 0 0 1 101,2 Z"
       style="color:#333333;fill:#333333" />
    <path
       inkscape:connector-curvature="0"
       id="circle1481"
       d="M 101,1 A 15,15 0 0 0 86,16 15,15 0 0 0 101,31 15,15 0 0 0 116,16 15,15 0 0 0 101,1 Z m 3.23047,10.503906 c 0.0645,0.0081 0.12948,0.02787 0.18945,0.0625 l 4.33008,2.5 c 0.0197,0.01138 0.0313,0.02947 0.0488,0.04297 0.0265,0.02027 0.0523,0.03936 0.0742,0.06445 0.0212,0.02437 0.0368,0.05058 0.0527,0.07813 0.0166,0.02847 0.0322,0.05616 0.043,0.08789 0.0106,0.03122 0.0133,0.06297 0.0176,0.0957 0.003,0.02207 0.0137,0.04155 0.0137,0.06445 0,0.01105 -0.005,0.02038 -0.006,0.03125 -0.002,0.02978 -0.0102,0.05842 -0.0176,0.08789 -0.009,0.03777 -0.0197,0.07365 -0.0371,0.107421 -0.004,0.0075 -0.004,0.01603 -0.008,0.02344 -0.009,0.01553 -0.0229,0.02487 -0.0332,0.03906 -0.0232,0.03202 -0.0481,0.06031 -0.0781,0.08594 -0.0217,0.0186 -0.0442,0.03245 -0.0684,0.04687 -0.0304,0.01817 -0.0596,0.03541 -0.0937,0.04687 -0.0306,0.01037 -0.0617,0.01329 -0.0937,0.01758 -0.0218,0.003 -0.0413,0.01368 -0.0642,0.01368 h -15 c -0.277,0 -0.5,-0.223 -0.5,-0.5 0,-0.277 0.223,-0.5 0.5,-0.5 h 13.13672 l -2.7168,-1.568359 c -0.23989,-0.1385 -0.32209,-0.441752 -0.18359,-0.681641 0.10387,-0.179914 0.30077,-0.270319 0.49414,-0.246091 z M 93.5,17 h 15 c 0.277,0 0.5,0.223 0.5,0.5 0,0.277 -0.223,0.5 -0.5,0.5 H 95.36328 l 2.7168,1.568359 c 0.23989,0.1385 0.32209,0.441752 0.18359,0.681641 -0.1385,0.239889 -0.4437,0.322094 -0.68359,0.183594 l -4.33008,-2.5 c -0.01971,-0.01138 -0.0313,-0.02947 -0.04883,-0.04297 -0.02651,-0.02027 -0.05229,-0.03936 -0.07422,-0.06445 -0.02048,-0.02358 -0.0353,-0.0496 -0.05078,-0.07617 -0.01754,-0.02969 -0.03375,-0.05854 -0.04492,-0.0918 -0.0103,-0.03077 -0.01341,-0.06151 -0.01758,-0.09375 C 93.01077,17.542384 93,17.522904 93,17.500004 c 0,-0.01105 0.0052,-0.02038 0.0059,-0.03125 0.002,-0.02991 0.01009,-0.0583 0.01758,-0.08789 0.0094,-0.03777 0.01967,-0.07365 0.03711,-0.107421 0.0039,-0.0075 0.0035,-0.01603 0.0078,-0.02344 0.0052,-0.009 0.01586,-0.01102 0.02148,-0.01953 0.04517,-0.06865 0.10319,-0.12475 0.17578,-0.164063 0.0088,-0.0048 0.0144,-0.01336 0.02344,-0.01758 C 93.35339,17.01881 93.42408,17 93.5,17 Z"
       style="opacity:1;fill:#323232;fill-opacity:0.99215686;stroke:none;stroke-width:2.5;stroke-linecap:round;stroke-linejoin:round;stroke-miterlimit:4;stroke-dasharray:none;stroke-opacity:1" />
  </g>
  <g
     id="22-22-system-log-out"
     transform="translate(-1.4995498)">
    <rect
       transform="scale(-1,1)"
       id="rect4242"
       width="22"
       height="22"
       x="-32"
       y="37"
       style="opacity:0.00100002;fill:currentColor;fill-opacity:1;stroke:none;stroke-width:2;stroke-linecap:round;stroke-linejoin:round;stroke-miterlimit:4;stroke-dasharray:none;stroke-opacity:1" />
    <g
       transform="translate(0,-1)"
       id="g981">
      <rect
         ry="0.5"
         y="48"
         x="15"
         height="1"
         width="12.000001"
         id="rect881"
         style="opacity:1;fill:#323232;fill-opacity:1;fill-rule:evenodd;stroke:none;stroke-width:1.7320509;stroke-linecap:round;stroke-linejoin:miter;stroke-miterlimit:4;stroke-dasharray:none;stroke-dashoffset:3;stroke-opacity:1;paint-order:stroke fill markers" />
      <rect
         ry="0.49999619"
         y="15.056353"
         x="46.532368"
         height="0.99999237"
         width="7"
         id="rect1054"
         style="opacity:1;fill:#323232;fill-opacity:1;fill-rule:evenodd;stroke:none;stroke-width:1.32287061;stroke-linecap:round;stroke-linejoin:miter;stroke-miterlimit:4;stroke-dasharray:none;stroke-dashoffset:3;stroke-opacity:1;paint-order:stroke fill markers"
         transform="rotate(45)" />
      <rect
         transform="matrix(0.70710678,-0.70710678,-0.70710678,-0.70710678,0,0)"
         style="opacity:1;fill:#323232;fill-opacity:1;fill-rule:evenodd;stroke:none;stroke-width:1.32287061;stroke-linecap:round;stroke-linejoin:miter;stroke-miterlimit:4;stroke-dasharray:none;stroke-dashoffset:3;stroke-opacity:1;paint-order:stroke fill markers"
         id="rect976"
         width="7"
         height="0.99999237"
         x="-22.05699"
         y="-53.533005"
         ry="0.49999619" />
    </g>
  </g>
</svg>
